Coordinates
version=1
nRows=24
nColumns=24
inDegrees=yes

Units are S.I. units (second, meters, Newtons, ...)
Angles are in degrees.

endheader
time	pelvis_tilt	pelvis_list	pelvis_rotation	pelvis_tx	pelvis_ty	pelvis_tz	hip_flexion_r	hip_adduction_r	hip_rotation_r	knee_angle_r	ankle_angle_r	subtalar_angle_r	mtp_angle_r	hip_flexion_l	hip_adduction_l	hip_rotation_l	knee_angle_l	ankle_angle_l	subtalar_angle_l	mtp_angle_l	lumbar_extension	lumbar_bending	lumbar_rotation
      4.08500000	    -16.27955836	     -7.15087768	      0.31959882	     -1.68071948	     -0.02346650	     -0.27224085	     23.35098450	     10.97885653	     -3.99455070	    -23.83066270	      9.88177565	    -14.44773393	     -3.84146277	     34.36620156	     -9.81708394	     -4.10491088	    -63.97608165	     -6.37379972	     -6.88454739	     23.12415168	     21.16605971	      4.90362725	    -14.78358159
      4.09000000	    -16.37903121	     -6.81659748	      0.19676642	     -1.67479025	     -0.02250831	     -0.27208977	     22.68075653	     10.72721205	     -3.70111652	    -23.24748660	      9.92347137	    -14.35235319	     -4.05723913	     35.03197313	     -9.47075213	     -4.38461565	    -63.25069911	     -5.78321712	     -6.96058663	     23.00057499	     21.16266841	      4.61757117	    -14.49901419
      4.09500000	    -16.45914358	     -6.48391775	      0.03846325	     -1.66884645	     -0.02157789	     -0.27190672	     21.98126480	     10.48575242	     -3.35490530	    -22.65118957	      9.97520262	    -14.22311077	     -4.28659364	     35.64448347	     -9.17301470	     -4.73938842	    -62.45991214	     -5.26363593	     -7.09531028	     22.79722525	     21.13790938	      4.34839987	    -14.18826886
      4.10000000	    -16.49491928	     -6.18477583	     -0.14646351	     -1.66291250	     -0.02067320	     -0.27171034	     21.23135817	     10.28145409	     -2.98683878	    -22.05144012	     10.04241405	    -14.01548755	     -4.66386198	     36.19233981	     -8.95065002	     -5.14862035	    -61.63112308	     -4.78163705	     -7.24895050	     22.38983010	     21.06246615	      4.12690622	    -13.86954302
      4.10500000	    -16.58546122	     -5.87175529	     -0.29752179	     -1.65704482	     -0.01989779	     -0.27157548	     20.57496765	     10.03229054	     -2.71732264	    -21.48980688	     10.10395589	    -13.83933338	     -4.89881385	     36.78634244	     -8.68826073	     -5.51618520	    -60.73090323	     -4.31539050	     -7.39898460	     22.05228633	     21.04034230	      3.87631417	    -13.56801229
      4.11000000	    -16.66478818	     -5.57208948	     -0.45128235	     -1.65118142	     -0.01915202	     -0.27144063	     19.91052184	      9.78859642	     -2.47578129	    -20.92455847	     10.14234427	    -13.64273193	     -5.09542928	     37.34656503	     -8.45869620	     -5.90414575	    -59.76797099	     -3.90737354	     -7.53833039	     21.69109375	     21.00818906	      3.63888358	    -13.27140003
      4.11500000	    -16.75769168	     -5.27722672	     -0.59700255	     -1.64533682	     -0.01846037	     -0.27133701	     19.27736958	      9.53471739	     -2.28857027	    -20.37629813	     10.14725907	    -13.44352695	     -5.23672320	     37.89952504	     -8.23616415	     -6.28606302	    -58.73606361	     -3.54450706	     -7.63931720	     21.35966231	     20.99021786	      3.40371724	    -12.98885548
      4.12000000	    -16.81284014	     -5.00431052	     -0.76828116	     -1.63952181	     -0.01783464	     -0.27124260	     18.60788795	      9.30366888	     -2.06890999	    -19.83356995	     10.20835710	    -13.17824451	     -5.37017811	     38.39301582	     -8.07053235	     -6.72270882	    -57.66792939	     -3.18041141	     -7.73335863	     20.92067977	     20.92679933	      3.20421013	    -12.69345421
      4.12500000	    -16.90728791	     -4.72790037	     -0.91899643	     -1.63373945	     -0.01727013	     -0.27117036	     18.01334536	      9.05182493	     -1.94405798	    -19.33067213	     10.20574970	    -12.94593858	     -5.44385917	     38.90253385	     -7.88955221	     -7.12768573	    -56.51600355	     -2.84825279	     -7.75252863	     20.58555880	     20.90519023	      2.98944692	    -12.40825407
      4.13000000	    -16.98189041	     -4.46729303	     -1.07802005	     -1.62797154	     -0.01676561	     -0.27112195	     17.40598427	      8.81014309	     -1.81741920	    -18.83889117	     10.22932133	    -12.67311924	     -5.47514922	     39.36848606	     -7.74387195	     -7.56453107	    -55.31345597	     -2.52525889	     -7.73717297	     20.24398291	     20.86146600	      2.79665114	    -12.12156931
      4.13500000	    -17.08583070	     -4.22417971	     -1.20804643	     -1.62223798	     -0.01633915	     -0.27110673	     16.84150974	      8.57266484	     -1.74002882	    -18.35094713	     10.22063336	    -12.41681427	     -5.47666568	     39.85635727	     -7.60170458	     -7.96163489	    -54.05793732	     -2.24618849	     -7.62952556	     19.98843685	     20.84404648	      2.60625182	    -11.87339820
      4.14000000	    -17.12564824	     -3.97691656	     -1.39662692	     -1.61649516	     -0.01591578	     -0.27108549	     16.23316714	      8.33411842	     -1.63946344	    -17.91644522	     10.26141058	    -12.07428719	     -5.41381960	     40.21915034	     -7.50434180	     -8.45747921	    -52.72820693	     -1.92419158	     -7.50998508	     19.64045571	     20.76371329	      2.44277616	    -11.57398743
      4.14500000	    -17.21409167	     -3.74680069	     -1.54202178	     -1.61078143	     -0.01559138	     -0.27109715	     15.69059565	      8.09910006	     -1.60837514	    -17.48865959	     10.26217241	    -11.77996846	     -5.34136247	     40.62805836	     -7.39890157	     -8.89426231	    -51.34850869	     -1.64432248	     -7.26078313	     19.40259824	     20.73365139	      2.27395036	    -11.28784417
      4.15000000	    -17.28899930	     -3.52219111	     -1.69764480	     -1.60509430	     -0.01531263	     -0.27115343	     15.15371392	      7.86246815	     -1.57500952	    -17.09298820	     10.26687141	    -11.45887250	     -5.23366016	     40.99049671	     -7.30709403	     -9.35692893	    -49.90680902	     -1.35722412	     -6.96855845	     19.18875736	     20.68305987	      2.11967622	    -11.01867651
      4.15500000	    -17.42824508	     -3.32864481	     -1.78594005	     -1.59942144	     -0.01516660	     -0.27127064	     14.69718301	      7.64585010	     -1.56282869	    -16.71271005	     10.24068325	    -11.22102248	     -5.17326556	     41.41535320	     -7.19258611	     -9.72293449	    -48.40822481	     -1.10029540	     -6.60380393	     19.08180390	     20.70865541	      1.96056870	    -10.88009806
      4.16000000	    -17.45169456	     -3.09637863	     -2.00702945	     -1.59374688	     -0.01494295	     -0.27127965	     14.13920367	      7.40258016	     -1.52825462	    -16.37227098	     10.28678206	    -10.79518171	     -5.00019618	     41.64625399	     -7.15576658	    -10.29875268	    -46.85090204	     -0.82066399	     -6.17586711	     18.92389389	     20.60145093	      1.82304944	    -10.49595023
      4.16500000	    -17.59664954	     -2.91441224	     -2.07507177	     -1.58807674	     -0.01492398	     -0.27146338	     13.71729819	      7.18563232	     -1.54386235	    -16.03852958	     10.26189924	    -10.57669522	     -4.93298361	     42.02479860	     -7.03892554	    -10.66708364	    -45.24686137	     -0.60001649	     -5.69625240	     18.85453577	     20.63306210	      1.66535321	    -10.38445633
      4.17000000	    -17.60747015	     -2.68784615	     -2.29974166	     -1.58240718	     -0.01480224	     -0.27150390	     13.17783293	      6.93754318	     -1.51213438	    -15.75002524	     10.32033412	    -10.12881473	     -4.74282734	     42.18405255	     -7.01367260	    -11.28048334	    -43.58660443	     -0.34201300	     -5.13831807	     18.76439552	     20.51330175	      1.53576485	    -10.00090447
      4.17500000	    -17.67367636	     -2.48374682	     -2.43429464	     -1.57672585	     -0.01480759	     -0.27166283	     12.70550807	      6.69495721	     -1.51245058	    -15.47465223	     10.34444243	     -9.79900908	     -4.59085451	     42.39901738	     -6.93154452	    -11.78417002	    -41.88329228	     -0.13457928	     -4.54297516	     18.70654649	     20.45969389	      1.38878686	     -9.76664907
      4.18000000	    -17.71051204	     -2.26752803	     -2.56159756	     -1.57102149	     -0.01483722	     -0.27185480	     12.21697254	      6.43188842	     -1.52473886	    -15.22533516	     10.37538845	     -9.48134864	     -4.40439880	     42.54849911	     -6.82900752	    -12.32098110	    -40.12701417	      0.04375597	     -3.95673923	     18.65511839	     20.37824956	      1.22663726	     -9.54742705
      4.18500000	    -17.81350837	     -2.09289297	     -2.70295835	     -1.56535054	     -0.01502094	     -0.27201790	     11.81985590	      6.21955793	     -1.50956927	    -15.01412691	     10.40744297	     -9.15497228	     -4.28803098	     42.76736450	     -6.78166807	    -12.84562038	    -38.37267283	      0.20130060	     -3.24858432	     18.68539605	     20.36382524	      1.10845836	     -9.31384618
      4.19000000	    -17.88192591	     -1.89439002	     -2.84421635	     -1.55963934	     -0.01521920	     -0.27220825	     11.40233479	      5.97563105	     -1.49158545	    -14.83599116	     10.45623387	     -8.83152411	     -4.17664088	     42.91134770	     -6.70461358	    -13.41165212	    -36.57122862	      0.32721628	     -2.56365020	     18.73052101	     20.31762716	      0.96688624	     -9.08108815
      4.19500000	    -17.93808977	     -1.69773106	     -2.97944481	     -1.55390713	     -0.01546943	     -0.27242870	     10.98688662	      5.72792600	     -1.47554413	    -14.68753647	     10.51219557	     -8.51289475	     -4.07181281	     43.02091520	     -6.61824068	    -13.98724489	    -34.74900840	      0.42390156	     -1.86575958	     18.80655067	     20.26163304	      0.82619497	     -8.85516379
      4.20000000	    -17.99765427	     -1.50600205	     -3.10839973	     -1.54814925	     -0.01578940	     -0.27265374	     10.58980704	      5.48327368	     -1.45754067	    -14.56901862	     10.57355040	     -8.20643466	     -3.98009161	     43.11697026	     -6.52775418	    -14.57025397	    -32.91834134	      0.48758589	     -1.15604303	     18.90985612	     20.21398583	      0.68245883	     -8.64602993
